<svg xmlns="http://www.w3.org/2000/svg" xmlns:xlink="http://www.w3.org/1999/xlink" width="32" height="32" version="1.1" viewBox="0 0 32 32"><defs><style type="text/css">@font-face{font-family:ifont;src:url(//at.alicdn.com/t/font_1442373896_4754455.eot?#iefix) format(&quot;embedded-opentype&quot;),url(//at.alicdn.com/t/font_1442373896_4754455.woff) format(&quot;woff&quot;),url(//at.alicdn.com/t/font_1442373896_4754455.ttf) format(&quot;truetype&quot;),url(//at.alicdn.com/t/font_1442373896_4754455.svg#ifont) format(&quot;svg&quot;)}</style></defs><g class="transform-group"><g><path fill="#9EABB3" d="M752.769622 64.632019 615.120612 64.632019c-83.899852 0-114.356514 11.117199-172.063821 68.824505l-344.127641 344.127641c-40.605813 40.605813-50.279127 121.786741 0 172.063821l275.30416 275.30416c27.14729 27.152407 60.185754 34.415834 89.26607 34.415834 34.961256 0 64.246233-15.868409 82.797751-34.415834l344.127641-344.127641c59.944254-59.945277 68.824505-92.780103 68.824505-172.063821L959.249277 271.111674C959.249277 114.804722 909.075551 64.632019 752.769622 64.632019L752.769622 64.632019zM718.360951 408.759661c-56.921407 0-103.239316-46.318932-103.239316-103.239316 0-56.915267 46.318932-103.239316 103.239316-103.239316 56.914244 0 103.233176 46.324048 103.233176 103.239316C821.593104 362.440729 775.274172 408.759661 718.360951 408.759661L718.360951 408.759661zM718.360951 408.759661" transform="scale(0.03125, 0.03125)"/></g></g></svg>